<?xml version="1.0" encoding="utf-8"?>
<!-- Generator: Adobe Illustrator 24.1.2, SVG Export Plug-In . SVG Version: 6.00 Build 0)  -->
<svg version="1.1" id="Ebene_1" xmlns="http://www.w3.org/2000/svg" xmlns:xlink="http://www.w3.org/1999/xlink" x="0px" y="0px"
	 viewBox="0 0 253.6 71.4" style="enable-background:new 0 0 253.6 71.4;" xml:space="preserve">
<style type="text/css">
	.st0{fill:#00693A;}
	.st1{fill:#FCC100;}
	.st2{enable-background:new    ;}
	.st3{fill:#4A4A49;}
</style>
<g>
	<polygon class="st0" points="165.4,42.4 155.9,18.1 149.9,18.1 162.7,48.9 162.8,49.1 168.1,49.1 180.8,18.4 180.9,18.1 175,18.1 	
		"/>
	<rect x="185" y="18.1" class="st0" width="5.3" height="30.8"/>
	<path class="st0" d="M208.7,30.4c-4.4-0.6-7.2-1.5-7.2-4.1s2.7-4.1,6.8-4.1c3.2,0,6,1.3,7.3,3.3l0.1,0.2l4.1-2.7l-0.1-0.2
		c-2.2-3.5-6-5.2-11.5-5.2s-11.8,2.7-12,8.7c0,6.9,6.2,8.3,12,9.1c5.2,0.7,7.6,2.2,7.6,4.7c0,1.4-0.7,4.8-7.4,4.8
		c-3.7,0.2-7.3-1.7-9.3-4.9l-0.1-0.2l-4,2.7l0.1,0.2c2.6,4.8,6.8,7,13.3,7c6.2,0,12.8-2.5,12.8-9.6
		C221.1,33.1,215.1,31.3,208.7,30.4z"/>
	<path class="st0" d="M43.1,37.9c5-0.9,8-4.4,8-9.6c0-4.9-3.4-10.2-11-10.2H33h-7h-0.2v30.8h5.3V38.5h6.1L46.4,49h6.2L52,47.7
		L43.1,37.9z M45.8,28.4c0,2.5-1.5,5.2-5.6,5.2h-9V23h9c2.8-0.2,5.3,1.9,5.5,4.8C45.8,28,45.8,28.2,45.8,28.4z"/>
	<polygon class="st0" points="62.4,36 79.2,36 79.2,31 62.4,31 62.4,23.3 79.9,23.3 79.9,18.1 57.1,18.1 57.1,48.9 80,48.9 80,43.7 
		62.4,43.7 	"/>
	<path class="st0" d="M107.8,41.3c-2.1,2-5,3.2-7.9,3.2c-8.1,0-11-5.8-11-10.8c0-5.5,3.4-11,11-11c2.9,0,5.6,1.1,7.7,3.1l0.2,0.1
		l3.6-3.4l-0.2-0.2c-3-3-7-4.7-11.3-4.7c-5.1,0-9.3,1.7-12.3,5c-2.6,3.1-4.1,7-4,11.1c-0.1,4,1.3,7.9,3.9,10.9
		c2.9,3.2,7.1,4.9,12.3,4.9c4.3,0.1,8.5-1.5,11.6-4.5l0.2-0.2l-3.7-3.7L107.8,41.3z"/>
	<path class="st0" d="M137.5,42.9c-1.7,1-3.7,1.5-5.7,1.4c-7.4,0-10.1-5.7-10.2-10.7c0-1.9,0.3-3.7,1-5.4c0.1-0.1,0.1-0.3,0.2-0.4
		l1.7,2.1l-0.2-8.9l-8.4,2.6l2.6,1c-0.2,0.4-0.5,0.8-0.7,1.2c-1.2,2.4-1.8,5-1.8,7.7c-0.1,4,1.3,7.9,3.9,11
		c2.8,3.2,6.9,4.9,11.9,4.9c2.5,0,5-0.5,7.3-1.5L137.5,42.9z"/>
	<path class="st1" d="M146.4,40.1c0.2-0.5,0.3-0.9,0.5-1.4c0.5-1.7,0.7-3.4,0.7-5.1c0.1-4.1-1.3-8-3.9-11.1c-3-3.3-7.3-5.1-11.8-5
		c-1.9,0-3.9,0.3-5.7,1l0.9,5.2c1.5-0.7,3.1-1,4.8-1c4.7,0.1,10.1,3,10.1,11c0,1.1-0.1,2.3-0.4,3.4l-1.8-2l0.8,8.9l8.2-3.1
		L146.4,40.1z"/>
	<g class="st2">
		<path class="st3" d="M33.4,65.2c-0.4,0.5-0.9,0.9-1.4,1.2c-0.5,0.2-1.1,0.4-1.7,0.4c-0.6,0-1.2-0.1-1.8-0.3
			c-0.5-0.2-1-0.5-1.4-0.9s-0.7-0.9-0.9-1.4C26.1,63.6,26,63,26,62.3s0.1-1.2,0.3-1.8c0.2-0.5,0.5-1,0.9-1.4s0.8-0.7,1.4-0.9
			c0.5-0.2,1.1-0.3,1.8-0.3c0.6,0,1.1,0.1,1.6,0.3c0.5,0.2,0.9,0.5,1.3,1l-0.6,0.5c-0.3-0.4-0.6-0.7-1-0.9s-0.8-0.3-1.3-0.3
			c-0.5,0-1,0.1-1.5,0.3c-0.4,0.2-0.8,0.5-1.1,0.8c-0.3,0.3-0.5,0.7-0.7,1.2c-0.2,0.5-0.2,0.9-0.2,1.5s0.1,1,0.2,1.5
			s0.4,0.8,0.7,1.2c0.3,0.3,0.7,0.6,1.1,0.8c0.4,0.2,0.9,0.3,1.5,0.3c0.2,0,0.4,0,0.7-0.1c0.2-0.1,0.5-0.1,0.7-0.2
			c0.2-0.1,0.4-0.2,0.6-0.4c0.2-0.2,0.4-0.4,0.5-0.6L33.4,65.2z"/>
		<path class="st3" d="M40.9,58.1h2.2c0.1,0,0.3,0,0.5,0s0.4,0,0.6,0.1s0.4,0.1,0.7,0.2c0.2,0.1,0.4,0.2,0.6,0.4
			c0.2,0.2,0.3,0.4,0.5,0.6s0.2,0.6,0.2,0.9c0,0.4-0.1,0.7-0.2,1s-0.3,0.5-0.5,0.6c-0.2,0.2-0.4,0.3-0.7,0.4
			c-0.3,0.1-0.5,0.1-0.7,0.2l2.5,4h-0.9l-2.4-4h-1.5v4h-0.8V58.1z M41.7,61.8h1.7c0.4,0,0.7-0.1,1-0.2c0.3-0.1,0.5-0.2,0.6-0.4
			c0.1-0.2,0.2-0.3,0.3-0.5c0.1-0.2,0.1-0.3,0.1-0.5s0-0.3-0.1-0.5c-0.1-0.2-0.1-0.3-0.3-0.5c-0.1-0.2-0.3-0.3-0.6-0.4
			c-0.3-0.1-0.6-0.2-1-0.2h-1.7V61.8z"/>
		<path class="st3" d="M53.9,58.1h5.2v0.7h-4.4v3h4.1v0.7h-4.1v3.3h4.6v0.7h-5.3V58.1z"/>
	</g>
	<g class="st2">
		<path class="st3" d="M71.1,58.1h0.8l3.5,8.4h-0.9l-0.9-2.2h-4.5l-1,2.2h-0.8L71.1,58.1z M71.5,59l-2,4.6h3.9L71.5,59z"/>
	</g>
	<g class="st2">
		<path class="st3" d="M84.3,58.8h-2.9v-0.7h6.5v0.7H85v7.7h-0.8V58.8z"/>
		<path class="st3" d="M95.2,58.1H96v8.4h-0.8V58.1z"/>
		<path class="st3" d="M104.3,58.1h1l5.1,7.4h0v-7.4h0.8v8.4h-1l-5.1-7.4h0v7.4h-0.8V58.1z"/>
		<path class="st3" d="M126.5,66c-0.5,0.3-1,0.5-1.5,0.6c-0.5,0.1-1.1,0.2-1.6,0.2c-0.6,0-1.2-0.1-1.8-0.3c-0.5-0.2-1-0.5-1.4-0.9
			s-0.7-0.9-0.9-1.4c-0.2-0.5-0.3-1.1-0.3-1.8s0.1-1.2,0.3-1.8c0.2-0.5,0.5-1,0.9-1.4s0.8-0.7,1.4-0.9c0.5-0.2,1.1-0.3,1.8-0.3
			c1.3,0,2.3,0.4,3,1.2l-0.6,0.6c-0.1-0.2-0.3-0.3-0.5-0.4s-0.4-0.2-0.6-0.3c-0.2-0.1-0.4-0.2-0.7-0.2c-0.2-0.1-0.5-0.1-0.7-0.1
			c-0.5,0-1,0.1-1.5,0.3c-0.4,0.2-0.8,0.5-1.1,0.8s-0.5,0.7-0.7,1.2c-0.2,0.5-0.2,0.9-0.2,1.5s0.1,1,0.2,1.5
			c0.2,0.5,0.4,0.8,0.7,1.2c0.3,0.3,0.7,0.6,1.1,0.8c0.4,0.2,0.9,0.3,1.5,0.3c0.5,0,0.9,0,1.3-0.1c0.4-0.1,0.8-0.2,1.1-0.4v-2.8h-2
			V62h2.8V66z"/>
		<path class="st3" d="M143.9,58.1h5v0.7h-4.3v3h4v0.7h-4v4h-0.8V58.1z"/>
		<path class="st3" d="M162.5,63.3c0,0.5-0.1,0.9-0.2,1.3c-0.1,0.4-0.3,0.8-0.5,1.1c-0.2,0.3-0.6,0.6-1,0.8s-0.9,0.3-1.4,0.3
			s-1.1-0.1-1.4-0.3s-0.7-0.4-1-0.8s-0.4-0.7-0.5-1.1c-0.1-0.4-0.2-0.8-0.2-1.3v-5.2h0.8v5c0,0.3,0,0.6,0.1,1c0.1,0.3,0.2,0.7,0.3,1
			c0.2,0.3,0.4,0.5,0.7,0.7c0.3,0.2,0.7,0.3,1.2,0.3s0.9-0.1,1.2-0.3c0.3-0.2,0.5-0.4,0.7-0.7c0.2-0.3,0.3-0.6,0.3-1
			c0.1-0.3,0.1-0.7,0.1-1v-5h0.8V63.3z"/>
		<path class="st3" d="M172.5,58.8h-2.9v-0.7h6.5v0.7h-2.9v7.7h-0.8V58.8z"/>
		<path class="st3" d="M189.5,63.3c0,0.5-0.1,0.9-0.2,1.3c-0.1,0.4-0.3,0.8-0.5,1.1s-0.6,0.6-1,0.8s-0.9,0.3-1.4,0.3
			s-1.1-0.1-1.4-0.3s-0.7-0.4-1-0.8s-0.4-0.7-0.5-1.1c-0.1-0.4-0.2-0.8-0.2-1.3v-5.2h0.8v5c0,0.3,0,0.6,0.1,1c0.1,0.3,0.2,0.7,0.3,1
			c0.2,0.3,0.4,0.5,0.7,0.7c0.3,0.2,0.7,0.3,1.2,0.3c0.5,0,0.9-0.1,1.2-0.3c0.3-0.2,0.5-0.4,0.7-0.7c0.2-0.3,0.3-0.6,0.3-1
			c0.1-0.3,0.1-0.7,0.1-1v-5h0.8V63.3z"/>
		<path class="st3" d="M197.6,58.1h2.2c0.1,0,0.3,0,0.5,0s0.4,0,0.6,0.1c0.2,0,0.4,0.1,0.7,0.2s0.4,0.2,0.6,0.4
			c0.2,0.2,0.3,0.4,0.5,0.6s0.2,0.6,0.2,0.9c0,0.4-0.1,0.7-0.2,1s-0.3,0.5-0.5,0.6c-0.2,0.2-0.4,0.3-0.7,0.4
			c-0.3,0.1-0.5,0.1-0.7,0.2l2.5,4h-0.9l-2.4-4h-1.5v4h-0.8V58.1z M198.4,61.8h1.7c0.4,0,0.7-0.1,1-0.2c0.3-0.1,0.5-0.2,0.6-0.4
			c0.1-0.2,0.2-0.3,0.3-0.5c0.1-0.2,0.1-0.3,0.1-0.5s0-0.3-0.1-0.5c-0.1-0.2-0.1-0.3-0.3-0.5c-0.1-0.2-0.3-0.3-0.6-0.4
			c-0.3-0.1-0.6-0.2-1-0.2h-1.7V61.8z"/>
		<path class="st3" d="M210.7,58.1h5.2v0.7h-4.4v3h4.1v0.7h-4.1v3.3h4.6v0.7h-5.3V58.1z"/>
	</g>
</g>
</svg>
